<?xml version="1.0" encoding="utf-8"?>
<!-- Generator: Adobe Illustrator 16.0.0, SVG Export Plug-In . SVG Version: 6.00 Build 0)  -->
<!DOCTYPE svg PUBLIC "-//W3C//DTD SVG 1.1//EN" "http://www.w3.org/Graphics/SVG/1.1/DTD/svg11.dtd">
<svg version="1.1" id="Layer_1" xmlns="http://www.w3.org/2000/svg" xmlns:xlink="http://www.w3.org/1999/xlink" x="0px" y="0px"
	 width="15px" height="15px" viewBox="0 0 15 15" enable-background="new 0 0 15 15" xml:space="preserve">
<g id="XMLID_1_">
	<g>
		<path fill="#FFFFFF" d="M13.18,9.43V5.07c0-1.92-1.56-3.5-3.49-3.5L5.33,1.59c-1.93,0-3.49,1.56-3.49,3.48v4.36
			c0,1.92,1.56,3.48,3.49,3.48h4.36C11.62,12.91,13.18,11.35,13.18,9.43z M14.99,4v7c0,2.21-1.79,4-4,4h-7c-2.21,0-4-1.79-4-4V4
			c0-2.21,1.79-4.02,4-4.02l7,0.02C13.2,0,14.99,1.79,14.99,4z"/>
	</g>
	<g>
	</g>
</g>
</svg>
