<?xml version="1.0" encoding="utf-8"?>
<!-- Generator: Adobe Illustrator 16.0.0, SVG Export Plug-In . SVG Version: 6.00 Build 0)  -->
<!DOCTYPE svg PUBLIC "-//W3C//DTD SVG 1.1//EN" "http://www.w3.org/Graphics/SVG/1.1/DTD/svg11.dtd">
<svg version="1.1" id="Layer_1" xmlns="http://www.w3.org/2000/svg" xmlns:xlink="http://www.w3.org/1999/xlink" x="0px" y="0px"
	 width="65px" height="66px" viewBox="0 0 65 66" enable-background="new 0 0 65 66" xml:space="preserve">
<path fill="#FFFFFF" stroke="#FFFFFF" stroke-width="20" stroke-miterlimit="10" d="M62.738,11.547c0,4.836-3.92,8.76-8.76,8.76
	c-4.836,0-8.76-3.923-8.76-8.76s3.924-8.757,8.76-8.757C58.818,2.79,62.738,6.709,62.738,11.547"/>
<path fill="#FFFFFF" stroke="#FFFFFF" stroke-width="20" stroke-miterlimit="10" d="M46.374,31.802l0.006,0.003
	c-0.012-0.026-0.026-0.049-0.041-0.073c-0.211-0.486-0.435-0.958-0.68-1.424c-1.679-3.732-1.904-6.278-0.388-10.242
	c-3.799,1.77-5.514,1.945-9.744,0.175c-0.709-0.36-1.443-0.688-2.196-0.978c-0.021-0.009-0.041-0.021-0.063-0.029l0.006,0.009
	c-2.566-0.981-5.355-1.521-8.269-1.521c-12.838,0-23.244,10.407-23.244,23.245s10.406,23.244,23.244,23.244
	c12.841,0,23.25-10.406,23.25-23.244C48.255,37.715,47.581,34.615,46.374,31.802z M25.005,49.727c-4.834,0-8.754-3.922-8.754-8.76
	c0-4.837,3.92-8.76,8.754-8.76c4.84,0,8.761,3.923,8.761,8.76C33.766,45.805,29.845,49.727,25.005,49.727z"/>
</svg>
