<?xml version="1.0" encoding="utf-8"?>
<!-- Generator: Adobe Illustrator 16.0.0, SVG Export Plug-In . SVG Version: 6.00 Build 0)  -->
<!DOCTYPE svg PUBLIC "-//W3C//DTD SVG 1.1//EN" "http://www.w3.org/Graphics/SVG/1.1/DTD/svg11.dtd">
<svg version="1.1" id="Layer_1" xmlns="http://www.w3.org/2000/svg" xmlns:xlink="http://www.w3.org/1999/xlink" x="0px" y="0px"
	 width="218px" height="41px" viewBox="0 0 218 41" enable-background="new 0 0 218 41" xml:space="preserve">
<path fill="#FFFFFF" stroke="#FFFFFF" stroke-width="10" stroke-miterlimit="10" d="M214.258,8.445c0,3.224-2.613,5.839-5.84,5.839
	c-3.225,0-5.84-2.615-5.84-5.839c0-3.225,2.615-5.838,5.84-5.838C211.645,2.605,214.258,5.221,214.258,8.445"/>
<path fill="#FFFFFF" stroke="#FFFFFF" stroke-width="10" stroke-miterlimit="10" d="M191.512,30.343
	c-3.223,0-5.836-2.613-5.836-5.838c0-3.226,2.613-5.841,5.836-5.841c3.229,0,5.842,2.616,5.842,5.841S194.74,30.343,191.512,30.343"
	/>
<path fill="#FFFFFF" stroke="#FFFFFF" stroke-width="10" stroke-miterlimit="10" d="M205.758,18.396l0.004,0.001
	c-0.008-0.018-0.018-0.033-0.025-0.049c-0.143-0.324-0.289-0.639-0.453-0.949c-1.119-2.488-1.271-4.186-0.258-6.828
	c-2.533,1.18-3.676,1.297-6.496,0.118c-0.473-0.241-0.963-0.459-1.465-0.653c-0.016-0.005-0.027-0.013-0.043-0.02l0.004,0.006
	c-1.711-0.654-3.57-1.014-5.512-1.014c-8.561,0-15.496,6.938-15.496,15.497c0,8.559,6.938,15.496,15.496,15.496
	c8.561,0,15.5-6.938,15.5-15.496C207.012,22.337,206.564,20.271,205.758,18.396"/>
<path fill="#FFFFFF" stroke="#FFFFFF" stroke-width="10" stroke-miterlimit="10" d="M176.018,9.174
	c-4.928-0.221-7.664,2.408-9.361,6.461V9.664h-10.4v29.623h10.4v-9.253c0-6.789,3.068-9.91,8.488-9.91h0.873V9.174z"/>
<path fill="#FFFFFF" stroke="#FFFFFF" stroke-width="10" stroke-miterlimit="10" d="M147.48,4.326h-10.35v25.765
	c0,7.063,3.668,9.801,9.908,9.801c2.902,0,5.369-0.711,7.23-1.752v-8.105c-1.262,0.604-2.574,0.988-3.943,0.988
	c-1.918,0-2.848-0.879-2.848-2.959V17.988h6.9V9.664h-6.9V4.326H147.48z"/>
<path fill="#FFFFFF" stroke="#FFFFFF" stroke-width="10" stroke-miterlimit="10" d="M125.322,20.509
	c-3.066-0.931-4.82-1.481-4.82-2.63V17.77c0-0.879,0.824-1.479,2.412-1.479c2.354,0,5.693,1.041,8.76,2.793l3.561-6.572
	c-3.396-2.19-7.889-3.452-12.213-3.452c-6.844,0-11.881,3.508-11.881,9.802v0.109c0,5.915,4.654,7.888,10.512,9.42
	c3.123,0.875,4.82,1.37,4.82,2.573v0.11c0,1.037-0.877,1.586-2.686,1.586c-3.064,0-6.732-1.149-10.127-3.395l-3.889,6.245
	c4.051,2.951,8.979,4.431,13.963,4.431c7.229,0,12.1-3.394,12.1-9.91v-0.108C135.834,24.177,131.182,22.148,125.322,20.509"/>
<path fill="#FFFFFF" stroke="#FFFFFF" stroke-width="10" stroke-miterlimit="10" d="M95.196,16.674c2.85,0,4.818,2.08,5.202,5.368
	H90.05C90.596,18.754,92.459,16.674,95.196,16.674"/>
<path fill="#FFFFFF" stroke="#FFFFFF" stroke-width="10" stroke-miterlimit="10" d="M96.62,32.226c-3.23,0-5.586-1.643-6.407-4.873
	h19.824c0.051-0.713,0.051-1.479,0.051-2.135c0-8.708-4.705-16.21-14.892-16.21c-8.76,0-14.948,6.847-14.948,15.499v0.107
	c0,9.145,6.57,15.387,15.879,15.387c5.858,0,9.969-2.408,12.813-6.025l-5.75-4.764C101.053,31.294,99.137,32.226,96.62,32.226"/>
<path fill="#FFFFFF" stroke="#FFFFFF" stroke-width="10" stroke-miterlimit="10" d="M68.628,30.339c0,5.434-2.137,8.948-5.2,8.948
	c-2.136,0-3.67-2.207-3.67-5.929v-0.2c0-4.121,1.752-6.739,4.764-6.739c1.534,0,3.012,0.609,4.106,1.413V30.339z"/>
<path fill="#FFFFFF" stroke="#FFFFFF" stroke-width="10" stroke-miterlimit="10" d="M64.248,9.226
	c-5.092,0-8.649,0.933-11.989,2.303l2.134,7.281c2.682-0.984,5.092-1.64,8.214-1.64c3.998,0,5.912,1.752,5.912,4.874v0.49
	c-1.698-0.658-4.38-1.15-7.118-1.15c-3.776,0-6.874,0.922-8.917,2.756c-1.719,1.542-2.69,3.729-2.69,6.554V30.8
	c0,5.861,4.271,9.145,9.911,9.145c3.889,0,6.681-1.529,8.761-3.775v3.119h10.239V22.259c0-4.161-0.93-7.229-3.176-9.417
	C73.174,10.488,69.56,9.226,64.248,9.226"/>
<path fill="#FFFFFF" stroke="#FFFFFF" stroke-width="10" stroke-miterlimit="10" d="M50.766,25.682"/>
<path fill="#FFFFFF" stroke="#FFFFFF" stroke-width="10" stroke-miterlimit="10" d="M38.342,9.008c-4.326,0-7.338,1.861-9.912,4.82
	c-1.588-3.066-4.601-4.82-8.542-4.82c-4.162,0-6.9,2.246-8.814,4.709V9.664H0.67v29.622h10.403V23.192
	c0-3.231,1.752-4.983,4.214-4.983c2.467,0,4.108,1.752,4.108,4.983v16.095h10.348V23.192c0-3.231,1.809-4.983,4.272-4.983
	c2.463,0,4.05,1.752,4.05,4.983v16.095h10.406V19.851C48.472,12.951,44.638,9.008,38.342,9.008"/>
<rect id="_x3C_Slice_x3E_" x="45.759" y="19.58" fill="none" stroke="#FFFFFF" stroke-width="10" stroke-miterlimit="10" width="16" height="17"/>
</svg>
