<?xml version="1.0" encoding="utf-8"?>
<!-- Generator: Adobe Illustrator 16.0.0, SVG Export Plug-In . SVG Version: 6.00 Build 0)  -->
<!DOCTYPE svg PUBLIC "-//W3C//DTD SVG 1.1//EN" "http://www.w3.org/Graphics/SVG/1.1/DTD/svg11.dtd">
<svg version="1.1" id="Layer_1" xmlns="http://www.w3.org/2000/svg" xmlns:xlink="http://www.w3.org/1999/xlink" x="0px" y="0px"
	 width="13px" height="197px" viewBox="0 0 13 197" enable-background="new 0 0 13 197" xml:space="preserve">
<path fill-rule="evenodd" clip-rule="evenodd" fill="#FFFFFF" d="M6,183.75c3.452,0,6.25,2.798,6.25,6.25
	c0,3.452-2.798,6.25-6.25,6.25s-6.25-2.798-6.25-6.25C-0.25,186.548,2.548,183.75,6,183.75z"/>
<path fill-rule="evenodd" clip-rule="evenodd" fill="#FFFFFF" d="M5,3.375h2v181.109H5V3.375z"/>
<path fill-rule="evenodd" clip-rule="evenodd" fill="#FFFFFF" d="M6,0c1.726,0,3.125,1.399,3.125,3.125
	C9.125,4.851,7.726,6.25,6,6.25c-1.726,0-3.125-1.399-3.125-3.125C2.875,1.399,4.274,0,6,0z"/>
</svg>
