<?xml version="1.0" encoding="utf-8"?>
<!-- Generator: Adobe Illustrator 16.0.0, SVG Export Plug-In . SVG Version: 6.00 Build 0)  -->
<!DOCTYPE svg PUBLIC "-//W3C//DTD SVG 1.1//EN" "http://www.w3.org/Graphics/SVG/1.1/DTD/svg11.dtd">
<svg version="1.1" id="Layer_1" xmlns="http://www.w3.org/2000/svg" xmlns:xlink="http://www.w3.org/1999/xlink" x="0px" y="0px"
	 width="14px" height="273px" viewBox="0 0 14 273" enable-background="new 0 0 14 273" xml:space="preserve">
<path fill-rule="evenodd" clip-rule="evenodd" fill="#FFFFFF" d="M7,259.75c3.452,0,6.25,2.798,6.25,6.25
	c0,3.452-2.798,6.25-6.25,6.25s-6.25-2.798-6.25-6.25C0.75,262.548,3.548,259.75,7,259.75z"/>
<path fill-rule="evenodd" clip-rule="evenodd" fill="#FFFFFF" d="M6,3.75h2v257H6V3.75z"/>
<path fill-rule="evenodd" clip-rule="evenodd" fill="#FFFFFF" d="M7,0.375c1.726,0,3.125,1.399,3.125,3.125
	c0,1.727-1.399,3.125-3.125,3.125c-1.726,0-3.125-1.399-3.125-3.125C3.875,1.774,5.274,0.375,7,0.375z"/>
</svg>
