<?xml version="1.0" encoding="utf-8"?>
<!-- Generator: Adobe Illustrator 16.0.0, SVG Export Plug-In . SVG Version: 6.00 Build 0)  -->
<!DOCTYPE svg PUBLIC "-//W3C//DTD SVG 1.1//EN" "http://www.w3.org/Graphics/SVG/1.1/DTD/svg11.dtd">
<svg version="1.1" id="Layer_1" xmlns="http://www.w3.org/2000/svg" xmlns:xlink="http://www.w3.org/1999/xlink" x="0px" y="0px"
	 width="156px" height="156px" viewBox="0 0 156 156" enable-background="new 0 0 156 156" xml:space="preserve">
<g>
	<path fill="#FFFFFF" d="M430-138v11h-9c-5.309,0-8,2.691-8,8v13v4h4h12.531l-1.111,10H417h-4v4v58h-14v-58v-4h-4h-7v-10h7h4v-4v-20
		c0-0.49,0.17-12,15-12H430 M438-176H336c-13.255,0-24,10.745-24,24v102c0,13.255,10.745,24,24,24h59h22h21
		c13.255,0,24-10.745,24-24v-102C462-165.254,451.255-176,438-176L438-176z M336-30c-11.028,0-20-8.972-20-20v-102
		c0-11.028,8.972-20,20-20h102c11.027,0,20,8.972,20,20v102c0,11.028-8.973,20-20,20h-21v-58h15l2-18h-17c0,0,0-9,0-13s2-4,4-4
		s13,0,13,0v-19c0,0-3,0-20,0s-19,13-19,16s0,20,0,20h-11v18h11v58H336L336-30z"/>
</g>
<g>
	<g id="XMLID_2_">
		<g>
			<path fill="#FFFFFF" d="M715,10v102c0,13.25-10.74,24-24,24H589c-13.25,0-24-10.75-24-24V10c0-13.25,10.75-24,24-24h102
				C704.26-14,715-3.25,715,10z M711,112V10c0-11.03-8.97-20-20-20H589c-11.03,0-20,8.97-20,20v102c0,11.03,8.97,20,20,20h102
				C702.031,132,711,123.03,711,112z"/>
			<path fill="#FFFFFF" d="M628.21,61.101L594,36.661v50.33L628.21,61.101z M684.09,88l-32.7-25.43l-10.38,7.67l-0.59-0.43
				l-10.5-7.5L595.981,88H684.09z M640.991,67.76L683.96,36h-87.44L640.991,67.76z M686,86.96V36.98l-32.94,24.35L686,86.96z
				 M690,32v60H590V32H690z"/>
		</g>
		<g>
		</g>
	</g>
</g>
<g>
	<g id="XMLID_3_">
		<g>
			<path fill="#FFFFFF" d="M50,23c0,0,0,12,0,15s0,5-5,5s-10,0-15,0C35,37,42,29,50,23z M46,38v-6.41
				c-2.58,2.41-5.01,4.93-7.25,7.41H45c0.42,0,0.75-0.02,0.99-0.04C46,38.65,46,38.3,46,38z"/>
			<path fill="#FFFFFF" d="M113,76c0,3-2,5-4,5s-4-2-9-2c-1.82,0-3.5,0.26-4.91,0.26c-2.47,0-4.09-0.81-4.09-5.26c0-7,6-10,12-10
				S113,69.92,113,76z M108.791,76.92c0.1-0.17,0.21-0.47,0.21-0.92c0-3.85-2.29-8-6-8c-1.88,0-8,0.43-8,6
				c0,0.58,0.04,0.99,0.07,1.26c0.01,0,0.01,0,0.02,0c0.5,0,1.14-0.05,1.82-0.1c0.92-0.08,1.96-0.16,3.09-0.16
				c3.81,0,6.3,0.96,7.95,1.6C108.21,76.71,108.541,76.831,108.791,76.92z"/>
			<path fill="#FFFFFF" d="M125,45c0,7,0,32,0,43c0,8-2,23-5,32s-6,17-26,17s-19-9-19-17s3-14,8-14s7,0,12,0c0,0,0,6,0,9
				c-5,0-8,1-8,4s4,5,10,5s9-2,9-11s-4-14-12-14s-16-3-16-7c0-1.89-0.45-2.89-0.92-2.89c-0.52,0-1.08,1.25-1.08,3.89c0,3-1,10-4,11
				c-0.93,0.31-2.14,0.52-3.85,0.52c-3.81,0-10.09-1.06-21.15-4.52c-16-5-18-23-20-38s1-16,15-16s11-8,11-16s5-12,12-12s21,4,21,11
				c0,0,12,0,19,0C123,29,125,38,125,45z M121,88V45c0-3.75-0.7-6.21-2.25-7.98C116.4,34.351,111.78,33,105,33H86h-4v-4
				c0-2.94-9.85-7-17-7c-5.31,0-8,2.69-8,8c0,1.11,0.07,2.29,0.13,3.43c0.25,4.25,0.53,9.08-2.83,12.63C51.771,48.75,47.86,50,42,50
				c-3.6,0-9.64,0-10.83,1.37c-0.89,1.01-0.96,4.42-0.21,10.1l0.15,1.12c1.93,14.49,3.92,29.48,17.08,33.59
				c9.22,2.88,15.93,4.34,19.96,4.34c0.92,0,1.68-0.07,2.27-0.22c0.72-1,1.58-4.5,1.58-7.3c0-7.12,3.55-7.89,5.08-7.89
				c0.81,0,4.82,0.33,4.92,6.64c0.85,1.17,5.59,3.25,12,3.25c10.17,0,16,6.56,16,18c0,10.37-4.01,15-13,15c-10.33,0-14-4.85-14-9
				c0-3.09,1.5-6.69,8-7.72V110h-8c-1.96,0-4,3.74-4,10c0,0.37,0,0.74,0,1.12c-0.03,4.27,0.09,7,1.85,8.78
				c2.02,2.03,6.57,3.1,13.15,3.1c17.45,0,19.45-5.98,22.21-14.26C119.03,110.26,121,95.73,121,88z"/>
			<path fill="#FFFFFF" d="M154,28v102c0,13.25-10.74,24-24,24H28c-13.25,0-24-10.75-24-24V28C4,14.75,14.75,4,28,4h102
				C143.26,4,154,14.75,154,28z M150,130V28c0-11.03-8.97-20-20-20H28c-11.03,0-20,8.97-20,20v102c0,11.03,8.97,20,20,20h102
				C141.03,150,150,141.03,150,130z"/>
		</g>
		<g>
		</g>
	</g>
</g>
<g>
	<g>
		<path fill="#FFFFFF" d="M258-182h-102c-13.255,0-24,10.745-24,24v102c0,13.255,10.745,24,24,24h102c13.256,0,24-10.745,24-24v-102
			C282-171.254,271.256-182,258-182L258-182z M156.001-36c-11.028,0-20-8.972-20-20v-102c0-11.028,8.972-20,20-20h102
			c11.028,0,20,8.972,20,20v102c0,11.028-8.972,20-20,20H156.001L156.001-36z"/>
	</g>
	<g>
		<path fill="#FFFFFF" d="M227.009-140.976c2.301,0,5.857,0.499,10.163,4.805l2.104,2.104l2.113-1.138l-3.185,5.004l6.196-0.62
			c-0.275,0.219-0.542,0.427-0.8,0.62l-1.74,1.305l0.149,2.17c0.019,0.27,1.628,27.207-18.624,44.697
			c-10.603,9.158-23.452,11.08-32.364,11.08c-6.306,0-12.139-0.934-17.048-2.33c5.866-1.586,11.63-4.527,15.228-9.323l4.8-6.4h-8
			c-2.046,0-5.48-1.153-9.104-4c0.035,0,0.07,0,0.104,0h21.542l-20.106-7.733c-0.09-0.035-7.372-2.911-11.412-9.825
			c1.884-0.023,3.546-0.211,4.946-0.562l6.854-1.713l-4.996-4.996l-0.379-0.376c-3.817-3.774-7.664-8.673-7.282-15.124
			c9.745,11.219,27.69,13.611,40.304,15.293l4.845,0.646l-0.325-4.877c-0.825-12.375,6.045-17.062,9.793-17.812
			c0.28-0.056,0.566-0.115,0.859-0.175C223.367-140.608,225.148-140.976,227.009-140.976 M253-146l-13,7
			c-4.753-4.753-9.154-5.976-12.991-5.977c-2.622,0-4.979,0.571-7.009,0.977c-5,1-14,7-13,22c-15-2-36-5-42-21c-8,15,3,25,6,28
			c-1.333,0.333-2.889,0.444-4.371,0.444c-2.963,0-5.629-0.444-5.629-0.444c3,13,16,18,16,18c-5,0-10-1-10-1c6,9,14,13,19,13
			c-5.072,6.762-15.86,9.238-23.304,9.238c-1.363,0-2.613-0.083-3.696-0.238c5.881,4.812,18.339,9.053,32.021,9.053
			c11.908,0,24.742-3.211,34.979-12.053c22-19,20-48,20-48c4-3,10-9,10-9l-10,1L253-146L253-146z"/>
	</g>
</g>
<g>
	<g>
		<g>
			<g>
				<path fill="none" stroke="#FFFFFF" stroke-width="4" stroke-miterlimit="10" d="M490.313,48c-6.34,0-11.5-5.159-11.5-11.5
					s5.16-11.5,11.5-11.5c6.342,0,11.5,5.159,11.5,11.5S496.655,48,490.313,48z M490.313,29c-4.135,0-7.5,3.364-7.5,7.5
					s3.365,7.5,7.5,7.5c4.137,0,7.5-3.364,7.5-7.5S494.45,29,490.313,29z"/>
			</g>
		</g>
	</g>
</g>
<g>
	<g id="XMLID_1_">
		<g>
			<path fill="#FFFFFF" d="M634.001-170.799c1.89,4.67,2.29,10.07,1.26,15.13l1.41,1.41l-2.57,2.58c-0.64,1.69-1.44,3.3-2.43,4.79
				c-5.351,8.02-14.471,23.41-15.561,36.46c-0.01,0.85-0.05,1.71-0.109,2.57c-0.08,1.05-0.95,1.86-1.99,1.86c-0.03,0-0.05,0-0.08,0
				c-1.07,0-1.93-0.92-1.93-2c0-0.84,0.04-1.72,0.109-2.61c0.061-5.55-1.08-10.66-3.229-15.85l-18.12,18.12l59.24,25.4l-0.79,1.83
				l-60.601-25.97c-0.31-0.13-0.52-0.41-0.59-0.73c-0.06-0.33,0.04-0.66,0.28-0.9l19.72-19.72c-1.63-3.53-3.72-7.13-6.22-10.96
				l-1.41-1.41l0.29-0.29c-1.04-1.54-2.14-3.12-3.3-4.75c-5.931-8.29-7.09-19.35-2.9-27.5c3.54-6.88,10.12-10.66,18.521-10.66
				c9.09,0,16.199,3.93,20.02,11.07c0.03,0.06,0.06,0.13,0.09,0.19l11.21-11.02l1.4,1.43L634.001-170.799z M628.341-149.109
				c4.21-6.31,4.68-15.33,1.149-21.93c-2.18-4.09-6.819-8.96-16.489-8.96c-6.83,0-12.141,3.01-14.96,8.49
				c-3.53,6.85-2.49,16.24,2.59,23.35c6.84,9.57,11.68,17.59,13.97,25.96C618.081-132.74,624.261-143,628.341-149.109z"/>
			<path fill="#FFFFFF" d="M580.221-97.799l-9.75,9.75c18.79,14.81,24.8,22.86,15.899,40.05h43.631c10.31,0,18.819-7.84,19.89-17.87
				L580.221-97.799z M513.201-54.609l22.891-22.89c-10.66,1.41-22.78,5.02-28.05,10.26C508.231-62.39,510.151-57.979,513.201-54.609
				z M528.551-48l24.859-25.75c-2.479-2.01-4.359-3.59-5.21-4.31c-2.55-0.18-5.62-0.11-8.92,0.2l-24.67,24.66
				c3.55,3.22,8.24,5.2,13.391,5.2H528.551z M554.971-72.49L531.331-48h41.95c1.061-8.97-3.51-13.18-10.479-18.4
				C559.991-68.509,557.292-70.629,554.971-72.49z M650.001-82.939v-84.65l-13.33,13.33l-1.41-1.41l14.72-14.73
				c-0.08-4.49-1.66-8.63-4.26-11.93l-1.4-1.43l0.08-0.08c-3.64-3.79-8.74-6.16-14.399-6.16h-102c-10.19,0-18.61,7.67-19.83,17.54
				c5.909-6.04,16.08-11.54,29.83-11.54h52c0.869,0,1.64,0.56,1.909,1.38c0.261,0.83-0.029,1.73-0.729,2.24l-11,8
				c-0.4,0.29-0.9,0.43-1.4,0.37c-0.069-0.01-6.21-0.69-9.91-0.92c2.761,3.12,13.181,16.65,12.12,26.15
				c-1.14,10.31-5.91,19.53-14.569,28.19c-1.261,1.27-2.57,2.43-3.82,3.57c-3.86,3.46-7.19,6.46-7.06,10.01
				c0.069,1.82,1.02,3.88,2.859,6.2l41.99-41.99l1.41,1.41l-42.09,42.1c1.869,2.04,4.359,4.27,7.52,6.71
				c0.561,0.43,1.11,0.86,1.65,1.29l10.42-10.42c0.29-0.29,0.74-0.37,1.12-0.2l69.58,31.89v-12.75l-0.79-0.34L650.001-82.939z
				 M654.001-170v102c0,13.25-10.74,24-24,24h-102c-13.25,0-24-10.75-24-24v-102c0-13.25,10.75-24,24-24h102
				C643.261-194,654.001-183.25,654.001-170z M578.451-176.069l5.4-3.93h-45.85c-14.74,0-25.66,7.93-30,14v48.32
				c4.06,5.37,16.609,10.32,23.3,7.81c2.29-0.86,5.54-1.77,7.29,0.17c1.02,1.14,1.09,2.81,0.2,4.59c-1.24,2.5-1.28,9.79,1.63,12.7
				c2.22,2.22,4.359,4.81,3.39,7.15c-0.76,1.84-2.83,2.18-4.09,2.25c-0.29,0.01-0.54,0.01-0.72,0.01c-13.16,0-23.721,3.67-31,6.39
				v4.22c7.96-5.67,21.51-8.66,31.819-9.5c3.66-0.3,6.91-0.32,9.36-0.1c0.42,0.04,0.81,0.2,1.13,0.47
				c0.06,0.06,7.04,6.03,14.89,11.92c7.511,5.63,13.21,10.88,12.11,21.6h4.53c9.3-16.58,4.84-22.49-17.061-39.42
				c-8.84-6.83-13.05-12.38-13.239-17.45c-0.2-5.41,3.97-9.16,8.38-13.13c1.22-1.09,2.479-2.23,3.67-3.41
				c7.989-8,12.38-16.44,13.43-25.81c0.86-7.82-9.29-21.23-11.43-23.37c-1.681-1.68-3.011-3-2.3-4.71c0.699-1.7,2.739-1.7,3.71-1.7
				C569.591-177,576.181-176.319,578.451-176.069z M539.001-87c0.319,0,0.569-0.01,0.77-0.04c-0.31-0.48-0.92-1.29-2.18-2.55
				c-4.17-4.16-4.33-13.27-2.41-17.23c-0.5,0.07-1.28,0.25-2.47,0.69c-7.16,2.68-18.271-0.8-24.71-5.93v31.18
				C515.491-83.62,525.961-87,539.001-87z"/>
			<path fill="#FFFFFF" d="M560.871-153.709c9.311,24.44-6.88,36.12-8.76,37.37c-2.54,1.7-6.229,2.67-10.109,2.67
				c-4.98,0-17.46-1.79-25.79-18.44c-5.131-9.69-6.23-21.01-2.92-30.24c2.319-6.46,6.56-11.25,11.949-13.5
				c3.09-1.29,6.21-1.94,9.261-1.94C545.591-177.79,554.961-169.24,560.871-153.709z M549.891-119.66
				c1.61-1.07,15.45-11.08,7.24-32.63c-5.28-13.86-13.32-21.5-22.63-21.5c-2.521,0-5.12,0.55-7.73,1.64
				c-4.33,1.8-7.78,5.76-9.71,11.15c-2.94,8.19-1.93,18.31,2.71,27.06c7.35,14.69,18,16.27,22.23,16.27
				C545.071-117.669,548.021-118.41,549.891-119.66z"/>
		</g>
		<g>
		</g>
	</g>
</g>
<g>
	<g>
		<g>
			<g>
				<path fill="none" stroke="#FFFFFF" stroke-width="4" stroke-miterlimit="10" d="M402.813,152"/>
			</g>
		</g>
	</g>
</g>
<g>
	<g>
		<g>
			<g>
				<path fill="none" stroke="#FFFFFF" stroke-width="4" stroke-miterlimit="10" d="M529.813,25"/>
			</g>
		</g>
	</g>
</g>
<g>
	<path fill="none" stroke="#FFFFFF" stroke-width="4" stroke-miterlimit="10" d="M320.813,193h-102c-13.255,0-24,10.745-24,24v102
		c0,13.255,10.745,24,24,24h102c13.256,0,24-10.745,24-24V217C344.813,203.746,334.069,193,320.813,193z M340.813,319
		c0,11.028-8.973,20-20,20h-102c-11.027,0-20-8.972-20-20V217c0-11.028,8.973-20,20-20h102c11.027,0,20,8.972,20,20V319z"/>
	<path fill="none" stroke="#FFFFFF" stroke-width="4" stroke-miterlimit="10" d="M269.813,217c-28.122,0-51,22.879-51,51
		s22.878,51,51,51s51-22.879,51-51S297.935,217,269.813,217z M269.813,315c-25.916,0-47-21.084-47-47s21.084-47,47-47
		c25.916,0,47,21.084,47,47S295.729,315,269.813,315z"/>
	<path fill="none" stroke="#FFFFFF" stroke-width="4" stroke-miterlimit="10" d="M269.813,232.5c-19.851,0-36,16.149-36,36
		s16.149,36,36,36c19.851,0,36-16.149,36-36S289.665,232.5,269.813,232.5z M269.813,303.5c-19.299,0-35-15.701-35-35
		s15.701-35,35-35c19.298,0,35,15.701,35,35S289.112,303.5,269.813,303.5z"/>
	<path fill="none" stroke="#FFFFFF" stroke-width="4" stroke-miterlimit="10" d="M269.813,239c-15.991,0-29,13.01-29,29
		s13.009,29,29,29s29-13.01,29-29S285.804,239,269.813,239z M269.813,293c-13.785,0-25-11.215-25-25s11.215-25,25-25
		c13.785,0,25,11.215,25,25S283.598,293,269.813,293z"/>
	<path fill="none" stroke="#FFFFFF" stroke-width="4" stroke-miterlimit="10" d="M284.813,268c0-8.271-6.729-15-15-15
		s-15,6.729-15,15s6.729,15,15,15S284.813,276.272,284.813,268z M258.813,268c0-6.065,4.935-11,11-11s11,4.935,11,11
		s-4.934,11-11,11S258.813,274.066,258.813,268z"/>
	<path fill="none" stroke="#FFFFFF" stroke-width="4" stroke-miterlimit="10" d="M269.813,252v-8c-9,0-24,8-24,24c3.869,0,8,0,8,0
		C253.813,263,257.813,252,269.813,252z"/>
	<path fill="none" stroke="#FFFFFF" stroke-width="4" stroke-miterlimit="10" d="M269.813,284v8c9,0,24-8,24-24c-3.869,0-8,0-8,0
		C285.813,273,281.813,284,269.813,284z"/>
</g>
<g>
	<path fill="none" stroke="#FFFFFF" stroke-width="4" stroke-miterlimit="10" d="M507.813,193h-102c-13.254,0-24,10.745-24,24v102
		c0,13.255,10.746,24,24,24h102c13.256,0,24-10.745,24-24V217C531.813,203.746,521.069,193,507.813,193z M527.813,319
		c0,11.028-8.973,20-20,20h-102c-11.027,0-20-8.972-20-20V217c0-11.028,8.973-20,20-20h102c11.027,0,20,8.972,20,20V319z"/>
	<path fill="none" stroke="#FFFFFF" stroke-width="4" stroke-miterlimit="10" d="M496.686,231.183l-0.24-0.08
		c-0.318-0.105-0.65-0.124-0.973-0.069c-0.219-0.014-0.438-0.033-0.66-0.033h-78c-0.24,0-0.477,0.02-0.713,0.036
		c-0.352-0.051-0.711-0.01-1.047,0.129c-4.676,0.835-8.24,4.923-8.24,9.835v54c0,5.514,4.486,10,10,10h78c5.514,0,10-4.486,10-10
		v-54C504.813,236.127,501.307,232.063,496.686,231.183z M455.68,277.649c0.225,0.154,0.475,0.238,0.73,0.291L489.079,301h-65.266
		v-45.26L455.68,277.649z M489.813,299.07l-31.092-21.947c3.424-2.329,17.477-11.906,31.092-21.445V299.07z M456.819,273.578
		l-45.973-31.607c0.305-4.717,2.738-5.836,4.77-6.696c14.939,9.984,39.805,27.194,40.059,27.371
		c0.693,0.479,1.615,0.473,2.301-0.017c12.41-8.864,33.717-24.197,38.176-27.406c2.348,0.813,4.432,1.981,4.645,7.768
		C485.075,254.312,462.141,269.957,456.819,273.578z M422.383,235h67.227c-7.748,5.574-22.748,16.359-32.816,23.556
		C452.254,255.418,435.305,243.717,422.383,235z M410.813,295v-48.197l11,7.563V301h-5C413.504,301,410.813,298.309,410.813,295z
		 M494.813,301h-3v-46.727c3.096-2.175,6.139-4.327,9-6.374V295C500.813,298.309,498.122,301,494.813,301z"/>
</g>
<g>
	<path fill="none" stroke="#FFFFFF" stroke-width="4" stroke-miterlimit="10" d="M156.813,217c0-13.255-10.745-24-24-24h-102
		c-13.255,0-24,10.745-24,24v102c0,13.255,10.745,24,24,24h102c13.255,0,24-10.745,24-24V217z M152.813,319
		c0,11.028-8.639,20-19.666,20h-102c-11.027,0-20.334-8.972-20.334-20v-82h142v-4h-142v-16c0-11.028,9.307-20,20.334-20h102
		c11.027,0,19.666,8.972,19.666,20V319z"/>
	<path fill="none" stroke="#FFFFFF" stroke-width="4" stroke-miterlimit="10" d="M54.864,258.557
		c-1.268,1.801-2.817,3.179-4.65,4.278c-1.834,1.101-3.926,1.831-6.226,2.265s-4.175,0.582-7.175,0.515V276h18v46h14v-70H57.364
		C56.964,254,56.13,256.757,54.864,258.557z"/>
	<path fill="none" stroke="#FFFFFF" stroke-width="4" stroke-miterlimit="10" d="M78.813,265h33.35
		c-6.667,8-12.05,17.035-16.149,26.699C91.913,301.368,89.464,311,88.663,322h15.2c0.065-5,0.616-9.844,1.65-15.242
		c1.032-5.4,2.5-10.806,4.399-16.071c1.9-5.266,4.291-10.271,7.125-14.937c2.833-4.666,5.775-8.636,9.775-11.836V252h-48V265z"/>
	<polygon fill="none" stroke="#FFFFFF" stroke-width="4" stroke-miterlimit="10" points="29.813,211 34.813,211 34.813,225 
		38.813,225 38.813,211 43.813,211 43.813,208 29.813,208 	"/>
	<path fill="none" stroke="#FFFFFF" stroke-width="4" stroke-miterlimit="10" d="M56.502,213.661
		c-0.336-0.44-0.797-0.784-1.381-1.032s-1.332-0.372-2.243-0.372c-0.641,0-1.297,0.004-1.969,0.332S49.686,214,49.254,214h-0.44v-6
		h-3v17h3v-6.504c0-1.264,0.392-2.172,0.808-2.724c0.416-0.553,1.18-0.828,2.108-0.828c0.816,0,1.333,0.252,1.654,0.756
		s0.43,1.268,0.43,2.292V225h4v-7.632c0-0.769-0.268-1.468-0.403-2.101C57.273,214.636,56.838,214.101,56.502,213.661z"/>
	<path fill="none" stroke="#FFFFFF" stroke-width="4" stroke-miterlimit="10" d="M67.813,219.096c0,1.265,0.004,2.172-0.412,2.725
		c-0.417,0.552-0.983,0.828-1.911,0.828c-0.815,0-1.13-0.252-1.451-0.757c-0.32-0.504-0.227-1.268-0.227-2.292V213h-4v7.224
		c0,0.769,0.164,1.469,0.3,2.101s0.42,1.168,0.756,1.607c0.336,0.44,0.82,0.78,1.404,1.021s1.344,0.359,2.256,0.359
		c0.72,0,1.43-0.296,2.118-0.616c0.688-0.32,1.254-0.695,1.686-1.695h0.48v2h3v-12h-4V219.096z"/>
	<path fill="none" stroke="#FFFFFF" stroke-width="4" stroke-miterlimit="10" d="M80.236,212.449c-0.4,0.128-0.776,0.308-1.128,0.54
		c-0.353,0.231-0.664,0.563-0.936,0.892c-0.272,0.328-0.488,1.12-0.648,1.12h0.289v-2h-4v12h4v-5.592
		c0-0.561-0.029-1.08,0.083-1.561c0.111-0.479,0.257-0.899,0.521-1.26c0.265-0.36,0.591-0.644,1.024-0.852
		c0.432-0.208,0.95-0.313,1.574-0.313c0.207,0,0.21,0.012,0.435,0.036c0.224,0.024,0.363,0.052,0.363,0.084v-3.168
		c0-0.08-0.313-0.12-0.537-0.12C80.845,212.256,80.636,212.321,80.236,212.449z"/>
	<path fill="none" stroke="#FFFFFF" stroke-width="4" stroke-miterlimit="10" d="M93.244,218.581
		c-0.368-0.264-0.788-0.476-1.26-0.636s-0.956-0.296-1.452-0.408c-0.479-0.112-0.952-0.216-1.416-0.313
		c-0.464-0.096-0.876-0.204-1.236-0.323c-0.359-0.12-0.651-0.276-0.876-0.469c-0.224-0.191-0.336-0.439-0.336-0.743
		c0-0.256,0.064-0.46,0.192-0.612s0.284-0.268,0.468-0.349c0.184-0.079,0.388-0.132,0.612-0.155
		c0.224-0.024,0.432-0.036,0.624-0.036c0.607,0,1.136,0.009,1.584,0.239c0.447,0.232,0.696,1.225,0.744,1.225h3.24
		c-0.064-1-0.261-1.297-0.589-1.801s-0.74-0.853-1.235-1.157c-0.496-0.304-1.061-0.493-1.692-0.621s-1.284-0.179-1.956-0.179
		s-1.328,0.067-1.968,0.187c-0.641,0.12-1.216,0.332-1.728,0.628c-0.513,0.297-0.925,0.701-1.236,1.214
		c-0.313,0.512-0.468,1.169-0.468,1.969c0,0.544,0.111,1.005,0.336,1.381c0.224,0.376,0.52,0.688,0.888,0.936
		c0.368,0.249,0.788,0.448,1.26,0.601s0.956,0.284,1.452,0.396c1.216,0.257,2.164,0.513,2.844,0.769
		c0.681,0.256,1.021,0.64,1.021,1.151c0,0.305-0.072,0.557-0.216,0.756c-0.145,0.201-0.324,0.36-0.54,0.48
		c-0.217,0.12-0.456,0.208-0.721,0.264c-0.264,0.057-0.516,0.084-0.756,0.084c-0.336,0-0.66-0.039-0.972-0.12
		c-0.313-0.079-0.588-0.203-0.828-0.371s-0.437-0.369-0.588-0.633c-0.152-0.264-0.229-0.932-0.229-0.932h-3.239
		c0.031,1,0.22,1.508,0.563,2.061c0.344,0.551,0.784,0.987,1.32,1.323s1.147,0.572,1.836,0.716c0.688,0.145,1.392,0.214,2.112,0.214
		c0.703,0,1.396-0.068,2.075-0.204c0.681-0.136,1.284-0.373,1.813-0.709s0.956-0.78,1.284-1.332
		c0.327-0.553,0.492-1.236,0.492-2.053c0-0.575-0.112-1.06-0.336-1.451C93.908,219.172,93.612,218.844,93.244,218.581z"/>
	<path fill="none" stroke="#FFFFFF" stroke-width="4" stroke-miterlimit="10" d="M104.813,214h0.286
		c-0.384-1-0.908-1.016-1.571-1.328c-0.664-0.312-1.364-0.441-2.101-0.441c-0.912,0-1.712,0.192-2.399,0.553
		c-0.688,0.36-1.261,0.842-1.716,1.434c-0.456,0.593-0.801,1.28-1.032,2.057c-0.232,0.776-0.349,1.581-0.349,2.413
		c0,0.863,0.116,1.696,0.349,2.496c0.231,0.801,0.576,1.51,1.032,2.125c0.455,0.616,1.035,1.104,1.739,1.465
		c0.704,0.359,1.521,0.539,2.448,0.539c0.816,0,1.548-0.355,2.196-0.651c0.647-0.296,1.172-0.66,1.571-1.66h0.546v2h3v-17h-4V214z
		 M105.124,220.249c-0.096,0.479-0.256,0.908-0.479,1.284c-0.225,0.376-0.524,0.676-0.9,0.899c-0.376,0.225-0.844,0.336-1.404,0.336
		c-0.527,0-0.98-0.115-1.355-0.348c-0.376-0.231-0.688-0.536-0.937-0.912s-0.428-0.804-0.54-1.284
		c-0.112-0.479-0.168-0.96-0.168-1.439c0-0.512,0.052-1.004,0.156-1.477c0.104-0.472,0.271-0.892,0.504-1.26
		c0.231-0.368,0.54-0.664,0.924-0.888s0.856-0.336,1.416-0.336c0.561,0,1.024,0.112,1.393,0.336
		c0.367,0.224,0.668,0.516,0.899,0.876c0.232,0.36,0.396,0.776,0.492,1.248s0.144,0.964,0.144,1.476
		C105.268,219.273,105.22,219.768,105.124,220.249z"/>
	<path fill="none" stroke="#FFFFFF" stroke-width="4" stroke-miterlimit="10" d="M121.813,222.241v-6.456
		c0-0.752,0.055-1.356-0.281-1.813s-0.656-0.812-1.184-1.067s-1.057-0.428-1.696-0.517c-0.64-0.088-1.244-0.132-1.868-0.132
		c-0.688,0-1.358,0.068-2.039,0.204c-0.68,0.136-1.285,0.364-1.829,0.684c-0.544,0.32-0.989,0.54-1.34,1.068
		c-0.353,0.528-0.548,1.788-0.596,1.788h3.407c0.064,0,0.288-0.948,0.673-1.236c0.384-0.288,0.911-0.33,1.584-0.33
		c0.304,0,0.588,0.072,0.852,0.111c0.264,0.04,0.496,0.146,0.696,0.266c0.199,0.12,0.359,0.301,0.479,0.517s0.181,0.514,0.181,0.882
		c0.016,0.353-0.089,0.624-0.313,0.808c-0.225,0.185-0.528,0.325-0.912,0.422c-0.384,0.096-0.824,0.169-1.319,0.217
		c-0.497,0.048-1.001,0.113-1.513,0.192c-0.512,0.081-1.02,0.188-1.523,0.324c-0.504,0.137-0.952,0.34-1.345,0.612
		c-0.392,0.272-0.712,0.636-0.96,1.092s-0.372,1.036-0.372,1.74c0,0.64,0.108,1.192,0.324,1.656s0.517,0.848,0.9,1.151
		c0.384,0.305,0.832,0.528,1.344,0.672c0.512,0.145,1.063,0.216,1.656,0.216c0.768,0,1.52-0.111,2.256-0.336
		c0.735-0.224,1.376-0.615,1.92-1.176c0.016,0.208,0.044,0.412,0.084,0.612s0.092,0.396,0.156,0.588h3.456
		c-0.16-0.256-0.496-0.64-0.559-1.152C122.069,223.336,121.813,222.8,121.813,222.241z M118.813,220.201
		c0,0.191-0.001,0.448-0.041,0.768c-0.04,0.32-0.139,0.636-0.314,0.948c-0.176,0.312-0.443,0.58-0.811,0.804
		c-0.368,0.225-0.886,0.336-1.558,0.336c-0.271,0-0.535-0.023-0.791-0.071c-0.256-0.049-0.479-0.133-0.671-0.252
		c-0.191-0.12-0.344-0.284-0.456-0.492s-0.167-0.464-0.167-0.769c0-0.319,0.056-0.584,0.168-0.792
		c0.112-0.207,0.26-0.38,0.444-0.516c0.184-0.136,0.399-0.244,0.647-0.324s0.5-0.144,0.757-0.191
		c0.271-0.049,0.543-0.088,0.815-0.12s0.532-0.072,0.78-0.12s0.46-0.108,0.677-0.181c0.216-0.071,0.521-0.171,0.521-0.3V220.201z"/>
	<path fill="none" stroke="#FFFFFF" stroke-width="4" stroke-miterlimit="10" d="M129.964,221h-0.049l-2.808-8h-3.624l4.344,11.437
		c0.097,0.239,0.145,0.394,0.145,0.665c0,0.369-0.108,0.653-0.324,0.957s-0.548,0.455-0.996,0.503
		c-0.336,0.016-0.595-0.005-0.931-0.037s-0.907-0.076-0.907-0.108v2.808c0,0.032,0.623,0.061,0.967,0.084
		c0.345,0.024,0.654,0.036,1.005,0.036c1.168,0,2.061-0.216,2.717-0.647c0.656-0.433,1.158-0.948,1.526-1.956l5.174-13.74h-3.527
		L129.964,221z"/>
</g>
<g>
	<path fill="none" stroke="#FFFFFF" stroke-width="4" stroke-miterlimit="10" d="M694.813,193h-102c-13.254,0-24,10.745-24,24v102
		c0,13.255,10.746,24,24,24h102c13.256,0,24-10.745,24-24V217C718.813,203.746,708.069,193,694.813,193z M714.813,319
		c0,11.028-8.973,20-20,20h-102c-11.027,0-20-8.972-20-20V217c0-11.028,8.973-20,20-20h102c11.027,0,20,8.972,20,20V319z"/>
	<path fill="none" stroke="#FFFFFF" stroke-width="4" stroke-miterlimit="10" d="M623.813,310h12.357c-2.4,2-4.34,5.873-5.814,9.352
		c-1.477,3.48-2.359,6.881-2.646,10.648h5.473c0.023-1.68,0.221-3.492,0.594-5.436c0.371-1.944,0.9-3.864,1.584-5.761
		c0.684-1.896,1.729-3.684,2.748-5.363c1.021-1.68,1.705-3.097,3.705-4.248V305h-18V310z"/>
	<path fill="none" stroke="#FFFFFF" stroke-width="4" stroke-miterlimit="10" d="M657.813,316.5v-0.072
		c1-0.336,2.018-0.972,2.605-1.908c0.588-0.936,0.861-2.016,0.861-3.239c0-1.128-0.262-2.124-0.766-2.988s-1.162-1.596-1.967-2.196
		c-0.805-0.6-1.711-1.05-2.719-1.35s-2.018-0.45-3.027-0.45c-1.295,0-2.471,0.211-3.527,0.63c-1.057,0.42-1.963,1.015-2.719,1.782
		c-0.756,0.769-1.344,1.683-1.764,2.75c-0.42,1.068-0.654,2.542-0.703,3.542h4.861c-0.025-1,0.293-2.365,0.953-3.218
		c0.66-0.852,1.639-1.276,2.934-1.276c0.938,0,1.766,0.289,2.484,0.865c0.721,0.576,1.08,1.404,1.08,2.484
		c0,0.721-0.174,1.297-0.521,1.729s-0.793,0.762-1.332,0.99c-0.541,0.229-1.234,0.366-1.859,0.414c-0.623,0.048-0.875,0.048-1.875,0
		v3.6c1,0,1.391,0.019,2.074,0.054c0.684,0.036,1.371,0.169,1.945,0.396c0.576,0.229,1.078,0.594,1.451,1.098
		c0.371,0.504,0.572,1.236,0.572,2.196c0,1.224-0.391,2.19-1.182,2.898c-0.793,0.708-1.762,1.062-2.914,1.062
		c-0.744,0-1.383-0.132-1.924-0.396c-0.539-0.265-0.988-0.618-1.348-1.063c-0.361-0.443-0.637-1.134-0.828-1.746
		S648.36,322,648.336,321h-4.859c-0.023,2,0.186,2.922,0.631,4.05c0.443,1.129,1.072,2.163,1.889,2.943s1.807,1.415,2.971,1.823
		c1.164,0.406,2.453,0.631,3.869,0.631c1.225,0,2.4-0.169,3.529-0.529c1.127-0.359,2.123-0.883,2.988-1.579
		c0.863-0.695,1.553-1.558,2.068-2.59c0.516-1.031,0.775-2.206,0.775-3.526c0-1.439-0.357-2.676-1.148-3.708
		C660.256,317.484,658.813,316.813,657.813,316.5z"/>
	<path fill="none" stroke="#FFFFFF" stroke-width="4" stroke-miterlimit="10" d="M668.313,303c-3.584,0-6.5,2.916-6.5,6.5
		s2.916,6.5,6.5,6.5s6.5-2.916,6.5-6.5S671.897,303,668.313,303z M668.313,312c-1.379,0-2.5-1.121-2.5-2.5s1.121-2.5,2.5-2.5
		s2.5,1.121,2.5,2.5S669.692,312,668.313,312z"/>
	<path fill="none" stroke="#FFFFFF" stroke-width="4" stroke-miterlimit="10" d="M675.813,260c0.045-4.369-0.539-8.775-1.758-13.056
		c-1.256-4.263-3.184-8.415-5.967-12.035c-2.732-3.652-6.381-6.681-10.523-8.769c-4.16-2.063-8.82-3.071-13.414-3.135
		c-4.617-0.005-9.24,0.87-13.473,2.745c-4.209,1.894-8.033,4.702-10.924,8.259c-2.941,3.516-4.979,7.656-6.248,11.922
		c-1.244,4.284-1.777,8.701-1.693,13.068c0.789-4.292,1.84-8.503,3.529-12.413c1.635-3.92,3.898-7.521,6.736-10.518
		c5.666-6.017,13.861-9.222,22.025-9.067c8.203-0.055,16.143,3.592,21.563,9.884c2.725,3.12,4.904,6.781,6.531,10.712
		C673.877,251.521,674.971,255.717,675.813,260z"/>
	<path fill="none" stroke="#FFFFFF" stroke-width="4" stroke-miterlimit="10" d="M690.813,261l-9.25-1.692
		c0.137-1.215,0.215-2.446,0.234-3.692l8.016-1.615l-8.025,0.004c-0.057-2.234-0.299-4.425-0.729-6.548l5.754-1.456l-6.084,0.006
		c-0.4-1.639-0.906-3.234-1.512-4.782l3.596-1.224l-4.088,0.009c-0.895-2.077-1.971-4.057-3.207-5.924
		c0.205-0.165,0.41-0.33,0.604-0.499c0.559-0.489,1.092-0.99,1.617-1.495c1.051-1.013,2.07-2.044,3.074-3.091
		c-1.215,0.789-2.441,1.56-3.68,2.295c-0.619,0.367-1.242,0.727-1.865,1.059c-0.238,0.125-0.475,0.239-0.711,0.352
		c-1.105-1.521-2.318-2.956-3.631-4.295l5.887-5.41l-7.059,4.269c-1.006-0.94-2.057-1.833-3.158-2.661
		c0.563-0.741,0.941-1.4,1.383-2.101l1.301-2.161l2.533-4.346l-3.338,3.752l-1.691,1.849c-0.557,0.589-1.16,1.256-1.688,1.702
		l0.893,0.867c-1.529-1.104-3.145-2.094-4.832-2.964L664.813,211l-5.262,9.426c-1.938-0.886-3.959-1.618-6.055-2.171l3.316-9.255
		l-4.949,8.866c-1.328-0.288-2.682-0.511-4.057-0.655l0.006-5.211l-1.477,5.093c-0.836-0.055-1.674-0.093-2.523-0.093
		c-1.428,0-2.836,0.086-4.225,0.24c-0.189-1.285-0.428-2.536-0.662-3.8c-0.352-1.82-0.723-3.633-1.113-5.44
		c0.059,1.848,0.1,3.695,0.117,5.54c0.006,1.308,0.014,2.632-0.031,3.923c-1.279,0.201-2.537,0.467-3.771,0.793L631.813,213
		l0.811,5.684c-1.834,0.565-3.609,1.267-5.313,2.092c-0.059-0.093-0.117-0.191-0.178-0.279c-0.236-0.348-0.479-0.674-0.723-0.996
		c-0.49-0.643-0.992-1.263-1.498-1.878c-1.016-1.229-2.051-2.433-3.1-3.622c0.777,1.382,1.537,2.773,2.266,4.174
		c0.363,0.7,0.719,1.403,1.051,2.107c0.166,0.352,0.326,0.704,0.467,1.05c0.037,0.094,0.066,0.182,0.1,0.273
		c-2.133,1.162-4.145,2.522-6.006,4.058L610.813,219l7.49,7.859c-1.016,0.922-1.977,1.903-2.889,2.929L610.813,228l3.533,3.039
		c-1.107,1.359-2.125,2.793-3.039,4.299L602.813,232l7.686,4.742c-1.221,2.219-2.229,4.57-2.99,7.029L601.813,241l5.303,4.15
		c-0.426,1.58-0.746,3.202-0.963,4.855l-6.34-0.006l6.164,1.559c-0.104,1.135-0.164,2.281-0.164,3.441
		c0,0.905,0.043,1.8,0.105,2.689l-8.105,0.811l8.254,0.825c0.211,1.859,0.555,3.679,1.027,5.447l-7.281,0.728l7.707,0.771
		c0.486,1.561,1.078,3.073,1.752,4.541L605.813,273l4.121-0.822c0.588,1.154,1.232,2.273,1.93,3.356L605.813,278l6.797-1.35
		c0.848,1.217,1.764,2.381,2.742,3.488L608.813,287l7.605-5.707c1.436,1.496,2.986,2.882,4.648,4.129L616.813,290l5.639-3.592
		c1.223,0.835,2.502,1.595,3.822,2.285L623.813,297l3.889-7.596c1.209,0.568,2.453,1.071,3.727,1.513L630.813,294l1.715-2.711
		c1.396,0.436,2.832,0.782,4.291,1.055L636.813,295l0.854-2.505c1.365,0.224,2.752,0.38,4.162,0.453L641.813,295l1.061-2.023
		c0.314,0.007,0.625,0.023,0.939,0.023c0.916,0,1.82-0.044,2.719-0.108l1.281,3.108l-0.012-3.21c1.98-0.208,3.912-0.571,5.791-1.072
		l2.221,4.282l-0.781-4.691c1.326-0.411,2.619-0.897,3.881-1.445l2.9,4.137l-1.551-4.748c0.992-0.479,1.955-1.004,2.896-1.563
		l5.654,5.312l-4.242-6.194c1.197-0.784,2.352-1.626,3.449-2.536l5.793,4.73l-4.662-5.711c1.063-0.951,2.068-1.963,3.018-3.027
		l7.645,5.738l-6.611-6.938c0.604-0.738,1.176-1.503,1.725-2.285l3.887,2.224l-3.1-3.389c0.67-1.035,1.291-2.104,1.861-3.205
		l7.238,1.594l-6.553-2.979c0.756-1.618,1.402-3.296,1.926-5.028l7.627,0.008l-7.131-1.804c0.262-1.051,0.48-2.117,0.654-3.199
		L690.813,261z M609.813,255c0-18.748,15.252-34,34-34s34,15.252,34,34s-15.252,34-34,34S609.813,273.749,609.813,255z"/>
</g>
<g>
	<path fill="none" stroke="#FFFFFF" stroke-width="4" stroke-miterlimit="10" d="M530.813,407c0-13.255-10.744-24-24-24h-102
		c-13.254,0-24,10.745-24,24v102c0,13.255,10.746,24,24,24h102c13.256,0,24-10.745,24-24V407z M526.813,509c0,11.046-8.953,20-20,20
		h-102c-11.045,0-20-8.954-20-20V407c0-11.046,8.955-20,20-20h102c11.047,0,20,8.954,20,20V509z"/>
	<polygon fill="none" stroke="#FFFFFF" stroke-width="4" stroke-miterlimit="10" points="433.813,442 439.813,442 439.813,423.391 
		448.94,396 443.307,396 436.909,416 436.78,416 431.213,396 424.813,396 433.813,423.391 	"/>
	<path fill="none" stroke="#FFFFFF" stroke-width="4" stroke-miterlimit="10" d="M444.813,418.463v16.255
		c0,5.951,4.424,7.999,9.033,7.999c5.375,0,8.967-3.199,8.967-8.64v-16.254c0-5.952-4.424-8-9.031-8
		C448.407,409.824,444.813,413.024,444.813,418.463z M450.813,418.08c0-2.561,1.113-4.032,3.033-4.032
		c1.855,0,2.967,1.472,2.967,4.032v16.383c0,2.56-1.111,4.031-2.967,4.031c-1.92,0-3.033-1.472-3.033-4.031V418.08z"/>
	<path fill="none" stroke="#FFFFFF" stroke-width="4" stroke-miterlimit="10" d="M472.374,442.717c1.215,0,2.268-0.078,3.227-0.654
		c0.961-0.512,1.691-1.063,2.268-2.063h-0.055v2h6v-32h-6v24.718c0,2.495-1.188,3.392-2.66,3.392c-1.855,0-2.34-1.216-2.34-2.88V410
		h-6v26.382C466.813,441.118,469.366,442.717,472.374,442.717z"/>
	<polygon fill="none" stroke="#FFFFFF" stroke-width="4" stroke-miterlimit="10" points="438.813,461 416.813,461 416.813,466 
		424.813,466 424.813,507 430.813,507 430.813,466 438.813,466 	"/>
	<path fill="none" stroke="#FFFFFF" stroke-width="4" stroke-miterlimit="10" d="M446.813,499.385c0,2.495-1.188,3.392-2.66,3.392
		c-1.855,0-2.34-1.216-2.34-2.88V475h-6v26.049c0,4.735,2.705,6.335,5.713,6.335c1.217,0,2.344-0.412,3.305-0.988
		c0.959-0.512,1.768-1.396,2.344-2.396h-0.361v3h6v-32h-6V499.385z"/>
	<path fill="none" stroke="#FFFFFF" stroke-width="4" stroke-miterlimit="10" d="M468.43,474.491c-0.959,0-1.924,0.104-2.883,0.551
		c-0.961,0.448-1.668,0.959-2.18,1.959h-0.555v-16h-6v46h6v-2h0.17c1.152,1,3.016,2.535,5.447,2.535c3.52,0,5.383-2.839,5.383-7.574
		v-18.047C473.813,477.178,471.95,474.491,468.43,474.491z M467.813,498.937c0,3.712-0.996,4.607-2.596,4.607
		c-1.215,0-2.404-1.023-2.404-3.392v-16.19c0-3.968,1.061-5.248,2.725-5.248c1.344,0,2.275,0.896,2.275,4.352V498.937z"/>
	<path fill="none" stroke="#FFFFFF" stroke-width="4" stroke-miterlimit="10" d="M487.282,474.491c-5.568,0-8.469,3.2-8.469,8.64
		v16.255c0,5.951,3.732,7.999,8.277,7.999c6.654,0,8.723-3.136,8.723-6.399V496h-6v3.385c0,2.56-0.229,4.159-2.469,4.159
		c-1.92,0-2.531-0.832-2.531-3.84V493h11v-10.51C495.813,476.539,492.081,474.491,487.282,474.491z M489.813,489h-5v-7.15
		c0-2.304,0.293-3.52,2.531-3.52c2.049,0,2.469,1.152,2.469,4.031V489z"/>
	<path fill="none" stroke="#FFFFFF" stroke-width="4" stroke-miterlimit="10" d="M491.813,447h-69c-9.924,0-18,8.075-18,18v39
		c0,9.925,8.076,18,18,18h69c9.926,0,18-8.075,18-18v-39C509.813,455.076,501.739,447,491.813,447z M505.813,504
		c0,7.72-6.279,14-14,14h-69c-7.719,0-14-6.28-14-14v-39c0-7.72,6.281-14,14-14h69c7.721,0,14,6.28,14,14V504z"/>
</g>
<g>
	<path fill="none" stroke="#FFFFFF" stroke-width="4" stroke-miterlimit="10" d="M128.813,383h-102c-13.255,0-24,10.745-24,24v102
		c0,13.255,10.745,24,24,24h102c13.255,0,24-10.745,24-24V407C152.813,393.746,142.068,383,128.813,383z M148.813,509
		c0,11.028-8.973,20-20,20h-102c-11.027,0-20-8.972-20-20V407c0-11.028,8.973-20,20-20h102c11.027,0,20,8.972,20,20V509z"/>
	<path fill="none" stroke="#FFFFFF" stroke-width="4" stroke-miterlimit="10" d="M76.813,394c-35.29,0-64,28.71-64,64
		s28.71,64,64,64s64-28.71,64-64S112.103,394,76.813,394z M77.813,517.975V516h-2v1.975C43.525,517.443,17.372,491.29,16.839,459
		h1.975v-2h-1.975c0.533-32.289,26.686-58.442,58.975-58.975V400h2v-1.975c32.289,0.532,58.442,26.686,58.975,58.975h-1.975v2h1.975
		C136.255,491.29,110.102,517.443,77.813,517.975z"/>
	<path fill="none" stroke="#FFFFFF" stroke-width="4" stroke-miterlimit="10" d="M86.675,456.06
		c-0.867-4.273-4.449-7.571-8.861-8.009V405h-2v43.051c-1.685,0.167-3.248,0.751-4.585,1.647L55.137,435.5l-2.646,3l15.918,14.045
		c-1.045,1.586-1.657,3.48-1.657,5.518c0,5.549,4.514,10.063,10.063,10.063c4.865,0,8.933-3.471,9.862-8.065l34.141-0.06l-0.007-4
		L86.675,456.06z M76.813,464.125c-3.343,0-6.063-2.72-6.063-6.063c0-3.002,2.195-5.494,5.063-5.973V458h2v-5.91
		c2.868,0.479,5.063,2.971,5.063,5.973C82.876,461.406,80.156,464.125,76.813,464.125z"/>
</g>
<g>
	<path fill="none" stroke="#FFFFFF" stroke-width="4" stroke-miterlimit="10" d="M320.813,384h-102c-13.255,0-24,10.745-24,24v102
		c0,13.255,10.745,24,24,24h102c13.256,0,24-10.745,24-24V408C344.813,394.746,334.069,384,320.813,384z M340.813,510
		c0,11.028-8.973,20-20,20h-102c-11.027,0-20-8.972-20-20V408c0-11.028,8.973-20,20-20h102c11.027,0,20,8.972,20,20V510z"/>
	<path fill="none" stroke="#FFFFFF" stroke-width="4" stroke-miterlimit="10" d="M269.813,412c-36.557,0-53,24.561-52.999,41.923
		c-0.01,0.271-0.741,26.677,23.101,36.48c0.341,6.635-2.494,8.613-5.748,10.885c-0.525,0.366-1.047,0.731-1.555,1.112
		c-0.631,0.473-0.925,1.272-0.75,2.042c0.175,0.77,0.785,1.364,1.559,1.519c2.098,0.42,3.982,0.624,5.76,0.624
		c7.21,0,12.647-3.328,18.548-11.427c2.148,0.297,6.814,0.842,12.083,0.842c18.133,0,31.683-4.704,40.276-13.982
		c10.032-10.834,10.138-24.709,9.718-30.171C318.576,435.83,304.245,412,269.813,412z M307.155,479.3
		c-7.805,8.427-20.367,12.7-37.341,12.7c-6.739,0-12.613-0.963-12.672-0.973c-0.758-0.126-1.525,0.195-1.967,0.826
		c-5.428,7.754-9.879,10.76-16.066,10.731c2.908-2.47,5.459-6.146,4.695-13.784c-0.076-0.757-0.575-1.406-1.288-1.674
		c-22.322-8.37-21.739-32.049-21.702-33.127c0-12.398,11.978-38,49-38c35.459,0,45.232,26.098,46.005,36.153
		C316.2,457.092,316.116,469.624,307.155,479.3z"/>
</g>
</svg>
