<?xml version="1.0" encoding="utf-8"?>
<!-- Generator: Adobe Illustrator 16.0.0, SVG Export Plug-In . SVG Version: 6.00 Build 0)  -->
<!DOCTYPE svg PUBLIC "-//W3C//DTD SVG 1.1//EN" "http://www.w3.org/Graphics/SVG/1.1/DTD/svg11.dtd">
<svg version="1.1" id="Layer_1" xmlns="http://www.w3.org/2000/svg" xmlns:xlink="http://www.w3.org/1999/xlink" x="0px" y="0px"
	 width="18px" height="29px" viewBox="0 0 18 29" enable-background="new 0 0 18 29" xml:space="preserve">
<g id="XMLID_1_">
	<g>
		<path fill="#FFFFFF" d="M6.98,2.03h4v-1h-4V2.03z M5.48,1.03c-0.27,0-0.5,0.23-0.5,0.5c0,0.28,0.23,0.5,0.5,0.5
			c0.28,0,0.5-0.22,0.5-0.5C5.98,1.26,5.76,1.03,5.48,1.03z M16.02,3.03H1.94v20h14.08V3.03z M2.02,0.03h13.93
			c2.09,0,2.03,2.06,2.03,2.06v24.97c0,1.94-1.83,1.97-1.94,1.97H1.92c-2.09,0-1.91-2.05-1.91-2.05L0.02,2.09
			C0.02,0.06,1.91,0.03,2.02,0.03z M9.98,26.03c0-0.55-0.45-1-1-1s-1,0.45-1,1c0,0.55,0.45,1,1,1S9.98,26.58,9.98,26.03z"/>
	</g>
	<g>
	</g>
</g>
</svg>
