<?xml version="1.0" encoding="utf-8"?>
<!-- Generator: Adobe Illustrator 16.0.0, SVG Export Plug-In . SVG Version: 6.00 Build 0)  -->
<!DOCTYPE svg PUBLIC "-//W3C//DTD SVG 1.1//EN" "http://www.w3.org/Graphics/SVG/1.1/DTD/svg11.dtd">
<svg version="1.1" id="Layer_1" xmlns="http://www.w3.org/2000/svg" xmlns:xlink="http://www.w3.org/1999/xlink" x="0px" y="0px"
	 width="20px" height="29px" viewBox="0 0 20 29" enable-background="new 0 0 20 29" xml:space="preserve">
<g id="XMLID_1_">
	<g>
		<path fill="#FFFFFF" d="M20,3.03v23c0,1.66-1.34,3-3,3H9.96v-1.96c3.32,0,6.02-2.69,6.02-6.02c0-3.32-2.7-6.02-6.02-6.02v-2H17
			c0.55,0,1-0.45,1-1v-9l1.99-0.13C20,2.94,20,2.99,20,3.03z"/>
		<path fill="#FFFFFF" d="M14.41,20.75c0.84-0.59,0.47,0.78,0,1.03c-0.47,0.25-0.32-0.25-0.38-0.72
			C13.97,20.59,14.41,20.75,14.41,20.75z"/>
		<path fill="#FFFFFF" d="M10,17.98c1.67,0,3.03,1.36,3.03,3.03c0,1.68-1.36,3.03-3.03,3.03s-3.03-1.35-3.03-3.03
			C6.97,19.34,8.33,17.98,10,17.98z"/>
		<path fill="#FFFFFF" d="M9.81,26.09c-0.47,0.19-0.37-0.12-0.53-0.5c-0.16-0.37,0.44-0.47,0.44-0.47c0.25-0.28,0.62,0.13,0.66,0.5
			C10.41,26,10.28,25.91,9.81,26.09z"/>
		<path fill="#FFFFFF" d="M9.84,16.02C9.7,15.97,9.83,15.84,9.84,16.02L9.84,16.02z"/>
		<path fill="#FFFFFF" d="M9.59,16.28c0-0.31,0.25-0.25,0.25-0.25c0-0.01,0-0.01,0-0.01c0.03,0.01,0.09,0.02,0.16,0.01
			c0.38-0.03,0.47,0.28,0.47,0.59c0,0.32-0.19,0.19-0.72,0.19S9.59,16.59,9.59,16.28z"/>
		<path fill="#FFFFFF" d="M5.03,20.84c-0.09-0.71,0.41-0.4,0.41-0.4c0.59-0.19,0.53,0.4,0.37,0.81c-0.15,0.41-0.22,0.28-0.53,0.34
			C4.97,21.66,5.12,21.56,5.03,20.84z"/>
		<path fill="#FFFFFF" d="M0,25.95V3.03c0-1.65,1.34-3,3-3h14c1.62,0,2.93,1.28,2.99,2.87L18,3.03c0-0.55-0.45-1-1-1H3
			c-0.55,0-1,0.45-1,1v9c0,0.55,0.45,1,1,1h6.96v2c-3.33,0-6.02,2.7-6.02,6.02c0,3.33,2.69,6.02,6.02,6.02v1.96H3
			C1.34,29.03,0,27.6,0,25.95z"/>
	</g>
	<g>
	</g>
</g>
</svg>
