<?xml version="1.0" encoding="utf-8"?>
<!-- Generator: Adobe Illustrator 16.0.0, SVG Export Plug-In . SVG Version: 6.00 Build 0)  -->
<!DOCTYPE svg PUBLIC "-//W3C//DTD SVG 1.1//EN" "http://www.w3.org/Graphics/SVG/1.1/DTD/svg11.dtd">
<svg version="1.1" id="Layer_1" xmlns="http://www.w3.org/2000/svg" xmlns:xlink="http://www.w3.org/1999/xlink" x="0px" y="0px"
	 width="137px" height="87px" viewBox="0 0 137 87" enable-background="new 0 0 137 87" xml:space="preserve">
<g id="XMLID_1_">
	<g>
		<path fill="#FFFFFF" d="M48,9H6v60h42V9z M21,6h12V3H21V6z M9,0h36c4.97,0,9,4.03,9,9v69c0,4.97-4.03,9-9,9H9
			c-4.97,0-9-4.28-9-9.25V9C0,4.03,4.03,0,9,0z M30,78c0-1.66-1.34-3-3-3s-3,1.34-3,3s1.34,3,3,3S30,79.66,30,78z"/>
		<path fill="#FFFFFF" d="M111,9H69v60h42V9z M72,0h36c4.97,0,9,4.03,9,9v69c0,4.97-4.03,9-9,9H72c-4.97,0-9-4.28-9-9.25V9
			C63,4.03,67.03,0,72,0z M84,6h12V3H84V6z M93,78c0-1.66-1.34-3-3-3s-3,1.34-3,3s1.34,3,3,3S93,79.66,93,78z"/>
		<path fill="#FFFFFF" d="M136.99,0c0,0,0,4.88,0,9C136.11,9,131,9,131,9v60h5.76c0,4.76,0.12,18,0.12,18H134c-4.97,0-9-4.28-9-9.25
			V9c0-4.97,4.03-9,9-9H136.99z"/>
	</g>
	<g>
	</g>
</g>
</svg>
