<?xml version="1.0" encoding="utf-8"?>
<!-- Generator: Adobe Illustrator 16.0.0, SVG Export Plug-In . SVG Version: 6.00 Build 0)  -->
<!DOCTYPE svg PUBLIC "-//W3C//DTD SVG 1.1//EN" "http://www.w3.org/Graphics/SVG/1.1/DTD/svg11.dtd">
<svg version="1.1" id="Layer_1" xmlns="http://www.w3.org/2000/svg" xmlns:xlink="http://www.w3.org/1999/xlink" x="0px" y="0px"
	 width="17px" height="29px" viewBox="0 0 17 29" enable-background="new 0 0 17 29" xml:space="preserve">
<g id="XMLID_1_">
	<g>
		<path fill="#FFFFFF" d="M10,18.03v-2H7v2H10z M10,21.03v-2H7v2H10z M10,24.03v-2H7v2H10z M10,27.03v-2H7v2H10z M15,22.03h-3v2h3
			V22.03z M15,19.03h-3v2h3V19.03z M15,16.03h-3v2h3V16.03z M15,13.03v-10c0-0.55-0.45-1-1-1H3c-0.55,0-1,0.45-1,1v10
			c0,0.55,0.45,1,1,1h11C14.55,14.03,15,13.58,15,13.03z M12,27.03h3v-2h-3V27.03z M3,29.03c-1.66,0-3-1.34-3-3v-23
			c0-1.65,1.34-3,3-3h11c1.66,0,3,1.35,3,3v23c0,1.66-1.34,3-3,3H3z M2,25.03v2h3v-2H2z M2,22.03v2h3v-2H2z M2,19.03v2h3v-2H2z
			 M2,16.03v2h3v-2H2z"/>
	</g>
	<g>
	</g>
</g>
</svg>
