<?xml version="1.0" encoding="utf-8"?>
<!-- Generator: Adobe Illustrator 16.0.0, SVG Export Plug-In . SVG Version: 6.00 Build 0)  -->
<!DOCTYPE svg PUBLIC "-//W3C//DTD SVG 1.1//EN" "http://www.w3.org/Graphics/SVG/1.1/DTD/svg11.dtd">
<svg version="1.1" id="Layer_1" xmlns="http://www.w3.org/2000/svg" xmlns:xlink="http://www.w3.org/1999/xlink" x="0px" y="0px"
	 width="38px" height="38px" viewBox="0 0 38 38" enable-background="new 0 0 38 38" xml:space="preserve">
<path fill-rule="evenodd" clip-rule="evenodd" fill="#FFFFFF" stroke="#FEF9FB" stroke-miterlimit="10" d="M28,13.484l-1.5,1.5
	c0,0,0-0.136,0,0.25c0,0.274-0.044,0.536-0.108,0.791c-0.035,2.063-0.692,4.8-3.392,6.959c-5.311,4.249-11,0.5-11,0.5
	c4.5,0,4.5-1.5,4.5-1.5c-1,0-3-2-3-2c0.5,0.5,1.5,0,1.5,0c-2.5-1.5-2.5-3-2.5-3c0.5,0.5,1.5,0,1.5,0c-2.5-2-1-4.5-1-4.5
	c0.5,2.5,7,3.5,7,3.5l0.083-0.042C20.032,15.715,20,15.229,20,14.985c0-1.795,1.455-3,3.25-3c0.988,0,1.862,0.45,2.458,1.146
	L26,12.984l1.5-1l-1,2L28,13.484z"/>
</svg>
